<svg xmlns="http://www.w3.org/2000/svg" viewBox="0 0 64 64" role="img" aria-label="Jobhunter">
  <defs>
    <linearGradient id="jh-red" x1="10" y1="8" x2="54" y2="56" gradientUnits="userSpaceOnUse">
      <stop offset="0" stop-color="#ef4444"/>
      <stop offset="1" stop-color="#b51d1a"/>
    </linearGradient>
  </defs>
  <rect width="64" height="64" rx="14" fill="#111827"/>
  <path d="M20 22h24a5 5 0 0 1 5 5v19a5 5 0 0 1-5 5H20a5 5 0 0 1-5-5V27a5 5 0 0 1 5-5Z" fill="#ffffff"/>
  <path d="M26 22v-4.5A4.5 4.5 0 0 1 30.5 13h7A4.5 4.5 0 0 1 42 17.5V22" fill="none" stroke="#ffffff" stroke-width="4" stroke-linecap="round"/>
  <path d="M15 33h34v13a5 5 0 0 1-5 5H20a5 5 0 0 1-5-5V33Z" fill="url(#jh-red)"/>
  <circle cx="36.5" cy="34.5" r="9.5" fill="#111827" stroke="#ffffff" stroke-width="4"/>
  <path d="M43.5 41.5 53 51" stroke="#ffffff" stroke-width="5" stroke-linecap="round"/>
  <path d="M17 49c10.5-.5 22.5-4.5 34-18" fill="none" stroke="#111827" stroke-width="4" stroke-linecap="round"/>
  <path d="M48 31h7v7" fill="none" stroke="#111827" stroke-width="4" stroke-linecap="round" stroke-linejoin="round"/>
</svg>
